<?xml version="1.0" encoding="UTF-8" standalone="no"?>
<svg
   xmlns:dc="http://purl.org/dc/elements/1.1/"
   xmlns:cc="http://creativecommons.org/ns#"
   xmlns:rdf="http://www.w3.org/1999/02/22-rdf-syntax-ns#"
   xmlns:svg="http://www.w3.org/2000/svg"
   xmlns="http://www.w3.org/2000/svg"
   xmlns:sodipodi="http://sodipodi.sourceforge.net/DTD/sodipodi-0.dtd"
   xmlns:inkscape="http://www.inkscape.org/namespaces/inkscape"
   width="1714"
   height="604"
   viewBox="0 0 16644602 5857438"
   version="1.1"
   id="svg30"
   sodipodi:docname="horizontal_color_tagline.svg"
   style="clip-rule:evenodd;fill-rule:evenodd;image-rendering:optimizeQuality;shape-rendering:geometricPrecision;text-rendering:geometricPrecision"
   inkscape:version="0.92.4 (5da689c313, 2019-01-14)">
  <metadata
     id="metadata34">
    <rdf:RDF>
      <cc:Work
         rdf:about="">
        <dc:format>image/svg+xml</dc:format>
        <dc:type
           rdf:resource="http://purl.org/dc/dcmitype/StillImage" />
        <dc:title></dc:title>
      </cc:Work>
    </rdf:RDF>
  </metadata>
  <sodipodi:namedview
     pagecolor="#ffffff"
     bordercolor="#666666"
     borderopacity="1"
     objecttolerance="10"
     gridtolerance="10"
     guidetolerance="10"
     inkscape:pageopacity="0"
     inkscape:pageshadow="2"
     inkscape:window-width="1920"
     inkscape:window-height="1018"
     id="namedview32"
     showgrid="false"
     inkscape:zoom="0.66277713"
     inkscape:cx="884.10303"
     inkscape:cy="276.67731"
     inkscape:window-x="-8"
     inkscape:window-y="-8"
     inkscape:window-maximized="1"
     inkscape:current-layer="text38" />
  <defs
     id="defs4">
    <style
       id="style2"><![CDATA[
    .fil0 {fill:none}
    .fil10 {fill:#438036}
    .fil5 {fill:#59B5BD}
    .fil8 {fill:#6FB061}
    .fil7 {fill:#7DE6F0}
    .fil4 {fill:#8A4484}
    .fil9 {fill:#94D985}
    .fil6 {fill:#B54E31}
    .fil2 {fill:#C27ABC}
    .fil3 {fill:#FA8564}
    .fil1 {fill:black;fill-rule:nonzero}
   ]]></style>
  </defs>
  <g
     id="Layer_x0020_1"
     transform="translate(0,1942193.9)">
    <g
       id="_2732409426960">
      <path
         class="fil0"
         d="m -3,-1948707.8 h 16644605 v 3917889 H -3 Z"
         id="path6"
         inkscape:connector-curvature="0"
         style="fill:none" />
      <path
         class="fil1"
         d="m 5678764,848991.19 -729669,-1667820 h 247665 l 515946,1180965 526852,-1180965 h 244030 l -744221,1667820 z m 1842061,-12120 v -1655700 h 996335 v 210902 h -761180 v 501796 h 739358 v 213333 h -739358 v 516348 h 785421 v 213321 z m 3638771,-392711 v 267055 c -96965,50512 -195948,88893 -296560,115152 -100600,26259 -200397,39596 -298979,39596 -94947,0 -185445,-12522 -271505,-37176 -86060,-25044 -167269,-61808 -244029,-110703 -122824,-80395 -218585,-183426 -286859,-308268 -68286,-125254 -102619,-261001 -102619,-408064.9966 0,-111115.0034 22625,-218986.0034 67472,-323634.0034 44848,-104235 109086,-195948 191912,-273924 88480,-83640 187463,-146261 296950,-187474 109900,-41614 231508,-62220 364846,-62220 93330,0 185445,10504 277158,31924 91312,21409 187474,54950 287673,101002 v 257365 c -105049,-56968 -203631,-98983 -296159,-126458 -92114,-27073 -181809,-40811 -268672,-40811 -193529,0 -353127,60202 -479585,180606 -126458,120403 -189492,271103 -189492,452511.003 0,179389.997 62220,328873.997 186660,449277.997 124440,120403 280403,180594 468267,180594 96564,0 193941,-16157 292523,-48483 98984,-32314 199182,-81611 300998,-147867 z m 1628729,392711 v -1439948 h -608463 v -215752 h 1452068 v 215752 h -608462 v 1439948 z m 2343869,0 V 8207.1934 L 14492209,-818828.81 h 280804 l 483209,628255 494939,-628255 h 285242 L 15372176,20328.193 V 836871.19 Z"
         id="path8"
         inkscape:connector-curvature="0"
         style="fill:#000000;fill-rule:nonzero" />
      <path
         class="fil2"
         d="m 3311548,-540798.81 362828,212942 v 885644 l -1171138,676175.01 -362828,-209479 V 138839.19 Z"
         id="path10"
         inkscape:connector-curvature="0"
         style="fill:#c27abc" />
      <path
         class="fil3"
         d="m 969261,-118365.81 v 885644 l 1171149,676152.01 362828,-209479 V 348307.19 l -1171149,-676152 z"
         id="path12"
         inkscape:connector-curvature="0"
         style="fill:#fa8564" />
      <path
         class="fil4"
         d="m 3674376,-327844.81 v 885632 L 2503238,1233951.2 V 348307.19 Z"
         id="path14"
         inkscape:connector-curvature="0"
         style="fill:#8a4484" />
      <path
         class="fil5"
         d="m 606433,-1213499.8 v 885654.99 l 1171149,676152 362828,-209468 v -885655 L 969261,-1422979.8 Z"
         id="path16"
         inkscape:connector-curvature="0"
         style="fill:#59b5bd" />
      <path
         class="fil6"
         d="m 2503238,348307.19 -362828,209480 v 885655.01 l 362828,-209480 z"
         id="path18"
         inkscape:connector-curvature="0"
         style="fill:#b54e31" />
      <path
         class="fil7"
         d="m 969261,-1422967.8 -362828,209479 1171138,676152.99 362839,-209480 z"
         id="path20"
         inkscape:connector-curvature="0"
         style="fill:#7de6f0" />
      <path
         class="fil8"
         d="m 1777582,-537335.81 1171138,-676152.99 362828,209480 v 885642.99 l -1171138,676153 -362828,-209480 z"
         id="path22"
         inkscape:connector-curvature="0"
         style="fill:#6fb061" />
      <path
         class="fil9"
         d="m 2948720,-1213488.8 362828,209480 -1171138,676163.99 -362839,-209491 z"
         id="path24"
         inkscape:connector-curvature="0"
         style="fill:#94d985" />
      <path
         class="fil10"
         d="m 3311548,-1004008.8 v 885642.99 l -1171138,676153 v -885632 z"
         id="path26"
         inkscape:connector-curvature="0"
         style="fill:#438036" />
      <g
         aria-label="YOUR FRONTEND, IN GO"
         style="font-style:normal;font-weight:normal;font-size:1150373.125px;line-height:1.25;font-family:sans-serif;letter-spacing:0px;word-spacing:0px;fill:#000000;fill-opacity:1;stroke:none;stroke-width:28759.328125"
         id="text38">
        <path
           d="m 1052543,2180229 h 148398.1 l -338209.7,402630.5 v 439442.6 H 744242.97 V 2582859.5 L 407183.65,2180229 h 148398.13 l 248480.59,294495.5 z"
           style="font-style:normal;font-variant:normal;font-weight:normal;font-stretch:normal;font-family:PetitaBold;-inkscape-font-specification:PetitaBold;letter-spacing:97109.6953125px;stroke-width:28759.328125"
           id="path23" />
        <path
           d="m 1901205.8,2825588.3 q 94330.6,-94330.6 94330.6,-224322.8 0,-129992.1 -94330.6,-224322.7 -93180.2,-93180.3 -226623.5,-93180.3 -134593.6,0 -227773.9,93180.3 -93180.2,93180.2 -93180.2,224322.7 0,132292.9 92029.9,224322.8 93180.2,93180.2 228924.2,93180.2 133443.3,0 226623.5,-93180.2 z m 88578.7,-532622.8 q 128841.8,125390.7 128841.8,308300 0,181759 -128841.8,307149.6 -127691.4,124240.3 -315202.2,124240.3 -189811.6,0 -316352.6,-123089.9 -127691.4,-124240.3 -127691.4,-308300 0,-184059.7 126541,-307149.6 127691.4,-124240.3 317503,-124240.3 186360.5,0 315202.2,123089.9 z"
           style="font-style:normal;font-variant:normal;font-weight:normal;font-stretch:normal;font-family:PetitaBold;-inkscape-font-specification:PetitaBold;letter-spacing:97109.6953125px;stroke-width:28759.328125"
           id="path25" />
        <path
           d="m 3063076.1,2180229 v 472803.3 q 0,81676.5 -24157.8,149548.5 -24157.9,67872 -73623.9,121939.6 -100082.5,108135 -258834,108135 -157601.1,0 -257683.5,-104683.9 -100082.5,-104684 -100082.5,-269187.3 V 2180229 h 118488.4 v 473953.7 q 0,64420.9 16105.2,112736.5 17255.6,47165.3 49466.1,81676.5 64420.9,70172.8 174856.7,70172.8 109285.5,0 172556,-72473.5 31060.1,-35661.6 47165.3,-83977.2 17255.6,-49466.1 17255.6,-113887 V 2180229 Z"
           style="font-style:normal;font-variant:normal;font-weight:normal;font-stretch:normal;font-family:PetitaBold;-inkscape-font-specification:PetitaBold;letter-spacing:97109.6953125px;stroke-width:28759.328125"
           id="path27" />
        <path
           d="m 3618932.9,2504634.2 q 20706.7,-16105.3 31060,-37962.3 11503.8,-21857.1 11503.8,-54067.6 0,-57518.6 -41413.5,-89729.1 -47165.3,-34511.2 -128841.8,-34511.2 h -106984.7 v 249631 h 101232.9 q 46014.9,0 78225.3,-8052.6 33360.9,-9203 55218,-25308.2 z m 146097.3,247330.2 176007.1,270337.7 h -140345.5 l -146097.4,-227773.9 q -21857.1,-33360.8 -41413.4,-60969.8 -18406,-27608.9 -37962.3,-49466 -32210.5,-37962.3 -100082.5,-37962.3 h -90879.5 v 376172 H 3265768.3 V 2180229 h 226623.5 q 65571.3,0 118488.4,13804.4 52917.2,13804.5 93180.3,43714.2 40263,31060.1 59819.4,75924.6 20706.7,44864.6 20706.7,100082.5 0,87428.4 -52917.2,141495.9 -33360.8,33360.8 -70172.7,55217.9 9202.9,9203 17255.6,19556.3 9202.9,10353.4 18405.9,23007.5 18406,26458.6 34511.2,50616.4 17255.6,24157.9 33360.8,48315.7 z"
           style="font-style:normal;font-variant:normal;font-weight:normal;font-stretch:normal;font-family:PetitaBold;-inkscape-font-specification:PetitaBold;letter-spacing:97109.6953125px;stroke-width:28759.328125"
           id="path29" />
        <path
           d="m 4984717.1,2180229 v 108135 h -345112 v 240428 h 309450.4 v 108135.1 h -309450.4 v 385375 H 4521116.7 V 2180229 Z"
           style="font-style:normal;font-variant:normal;font-weight:normal;font-stretch:normal;font-family:PetitaBold;-inkscape-font-specification:PetitaBold;letter-spacing:97109.6953125px;stroke-width:28759.328125"
           id="path31" />
        <path
           d="m 5515752.6,2504634.2 q 20706.7,-16105.3 31060.1,-37962.3 11503.7,-21857.1 11503.7,-54067.6 0,-57518.6 -41413.4,-89729.1 -47165.3,-34511.2 -128841.8,-34511.2 h -106984.7 v 249631 h 101232.8 q 46014.9,0 78225.4,-8052.6 33360.8,-9203 55217.9,-25308.2 z m 146097.4,247330.2 176007.1,270337.7 h -140345.5 l -146097.4,-227773.9 q -21857.1,-33360.8 -41413.5,-60969.8 -18405.9,-27608.9 -37962.3,-49466 -32210.4,-37962.3 -100082.4,-37962.3 h -90879.5 v 376172 H 5162588.1 V 2180229 h 226623.5 q 65571.2,0 118488.4,13804.4 52917.2,13804.5 93180.2,43714.2 40263.1,31060.1 59819.4,75924.6 20706.7,44864.6 20706.7,100082.5 0,87428.4 -52917.1,141495.9 -33360.9,33360.8 -70172.8,55217.9 9203,9203 17255.6,19556.3 9203,10353.4 18406,23007.5 18405.9,26458.6 34511.2,50616.4 17255.6,24157.9 33360.8,48315.7 z"
           style="font-style:normal;font-variant:normal;font-weight:normal;font-stretch:normal;font-family:PetitaBold;-inkscape-font-specification:PetitaBold;letter-spacing:97109.6953125px;stroke-width:28759.328125"
           id="path33" />
        <path
           d="m 6563950.9,2825588.3 q 94330.6,-94330.6 94330.6,-224322.8 0,-129992.1 -94330.6,-224322.7 -93180.2,-93180.3 -226623.5,-93180.3 -134593.6,0 -227773.8,93180.3 -93180.3,93180.2 -93180.3,224322.7 0,132292.9 92029.9,224322.8 93180.2,93180.2 228924.2,93180.2 133443.3,0 226623.5,-93180.2 z m 88578.8,-532622.8 q 128841.8,125390.7 128841.8,308300 0,181759 -128841.8,307149.6 -127691.4,124240.3 -315202.3,124240.3 -189811.5,0 -316352.6,-123089.9 -127691.4,-124240.3 -127691.4,-308300 0,-184059.7 126541,-307149.6 127691.5,-124240.3 317503,-124240.3 186360.5,0 315202.3,123089.9 z"
           style="font-style:normal;font-variant:normal;font-weight:normal;font-stretch:normal;font-family:PetitaBold;-inkscape-font-specification:PetitaBold;letter-spacing:97109.6953125px;stroke-width:28759.328125"
           id="path35" />
        <path
           d="m 7789342.9,2180229 v 842073.1 h -93180.3 l -554479.8,-637306.7 v 637306.7 H 7023194.4 V 2180229 h 94330.6 q 80526.1,97781.7 155300.3,184059.7 74774.3,86277.9 150698.9,169104.8 62120.2,70172.8 123089.9,141495.9 62120.2,70172.8 124240.3,142646.3 V 2180229 Z"
           style="font-style:normal;font-variant:normal;font-weight:normal;font-stretch:normal;font-family:PetitaBold;-inkscape-font-specification:PetitaBold;letter-spacing:97109.6953125px;stroke-width:28759.328125"
           id="path37" />
        <path
           d="m 8706703.9,2180229 v 108135 h -294495.6 v 733938.1 H 8293719.9 V 2288364 h -294495.5 v -108135 z"
           style="font-style:normal;font-variant:normal;font-weight:normal;font-stretch:normal;font-family:PetitaBold;-inkscape-font-specification:PetitaBold;letter-spacing:97109.6953125px;stroke-width:28759.328125"
           id="path39" />
        <path
           d="m 9370785.4,2914167 v 108135.1 H 8874974.6 V 2180229 h 487758.2 v 108135 H 8993463 v 256533.2 h 358916.4 v 108135.1 H 8993463 V 2914167 Z"
           style="font-style:normal;font-variant:normal;font-weight:normal;font-stretch:normal;font-family:PetitaBold;-inkscape-font-specification:PetitaBold;letter-spacing:97109.6953125px;stroke-width:28759.328125"
           id="path41" />
        <path
           d="m 10346924,2180229 v 842073.1 h -93180 l -554480.2,-637306.7 v 637306.7 H 9580775.4 V 2180229 h 94330.6 q 80526.1,97781.7 155300.3,184059.7 74774.3,86277.9 150698.9,169104.8 62119.8,70172.8 123089.8,141495.9 62120,70172.8 124240,142646.3 V 2180229 Z"
           style="font-style:normal;font-variant:normal;font-weight:normal;font-stretch:normal;font-family:PetitaBold;-inkscape-font-specification:PetitaBold;letter-spacing:97109.6953125px;stroke-width:28759.328125"
           id="path43" />
        <path
           d="m 11128831,2829039.4 q 90879,-85127.6 90879,-226623.5 0,-141495.9 -89729,-227773.9 -89729,-86278 -243879,-86278 h -184059 v 625803 h 181759 q 154150,0 245029,-85127.6 z m 90879,-536073.9 q 62121,57518.7 92030,134593.7 31060,77075 31060,174856.7 0,184059.7 -117338,302548.1 -59819,59819.4 -141496,88578.7 -81676,28759.4 -184059,28759.4 h -316353 V 2180229 h 308300 q 102383,0 184060,27608.9 81676,27609 143796,85127.6 z"
           style="font-style:normal;font-variant:normal;font-weight:normal;font-stretch:normal;font-family:PetitaBold;-inkscape-font-specification:PetitaBold;letter-spacing:97109.6953125px;stroke-width:28759.328125"
           id="path45" />
        <path
           d="m 11712565,2853197.2 v 120789.2 q 0,51766.8 -24158,100082.5 -9203,19556.3 -24158,34511.2 -14954,16105.2 -32210,28759.3 -2301,2300.7 -5752,4601.5 -2301,2300.7 -9203,6902.2 -5752,4601.5 -17255,12654.1 -11504,9203 -31061,23007.5 v -105834.3 q 5752,-9203 8053,-12654.1 3451,-3451.2 5752,-5751.9 2301,-2300.8 8053,-8052.6 5751,-5751.9 6902,-8052.6 3451,-8052.6 5752,-21857.1 h -23008 v -169104.9 z"
           style="font-style:normal;font-variant:normal;font-weight:normal;font-stretch:normal;font-family:PetitaBold;-inkscape-font-specification:PetitaBold;letter-spacing:97109.6953125px;stroke-width:28759.328125"
           id="path47" />
        <path
           d="m 12489969,2180229 v 842073.1 h -117338 V 2180229 Z"
           style="font-style:normal;font-variant:normal;font-weight:normal;font-stretch:normal;font-family:PetitaBold;-inkscape-font-specification:PetitaBold;letter-spacing:97109.6953125px;stroke-width:28759.328125"
           id="path49" />
        <path
           d="m 13477559,2180229 v 842073.1 h -93180 l -554480,-637306.7 v 637306.7 h -118489 V 2180229 h 94331 q 80526,97781.7 155300,184059.7 74775,86277.9 150699,169104.8 62120,70172.8 123090,141495.9 62120,70172.8 124240,142646.3 V 2180229 Z"
           style="font-style:normal;font-variant:normal;font-weight:normal;font-stretch:normal;font-family:PetitaBold;-inkscape-font-specification:PetitaBold;letter-spacing:97109.6953125px;stroke-width:28759.328125"
           id="path51" />
        <path
           d="m 14963484,2608167.8 v 346262.3 q -40263,20706.7 -74774,34511.2 -34511,13804.4 -71323,23007.4 -75925,20706.7 -159902,20706.7 -194413,0 -324405,-123089.9 -131143,-124240.3 -131143,-310600.7 0,-182909.4 127692,-305999.3 126541,-123089.9 316352,-123089.9 95481,0 174857,25308.2 39113,12654.1 69022,25308.2 29910,11503.7 59820,28759.3 v 135744.1 q -60970,-35661.6 -98932,-52917.2 -36812,-17255.6 -70173,-27609 -67872,-20706.7 -134594,-20706.7 -138044,0 -228924,89729.1 -92030,89729.1 -92030,226623.5 0,144947.1 92030,231225 94331,87428.4 248481,87428.4 60969,0 115037,-13804.5 20707,-5751.8 36812,-11503.7 16105,-5751.9 28759,-11503.7 v -165653.8 h -165653 v -108135 z"
           style="font-style:normal;font-variant:normal;font-weight:normal;font-stretch:normal;font-family:PetitaBold;-inkscape-font-specification:PetitaBold;letter-spacing:97109.6953125px;stroke-width:28759.328125"
           id="path53" />
        <path
           d="m 15821190,2825588.3 q 94331,-94330.6 94331,-224322.8 0,-129992.1 -94331,-224322.7 -93180,-93180.3 -226624,-93180.3 -134593,0 -227773,93180.3 -93181,93180.2 -93181,224322.7 0,132292.9 92030,224322.8 93180,93180.2 228924,93180.2 133444,0 226624,-93180.2 z m 88579,-532622.8 q 128841,125390.7 128841,308300 0,181759 -128841,307149.6 -127692,124240.3 -315203,124240.3 -189811,0 -316352,-123089.9 -127692,-124240.3 -127692,-308300 0,-184059.7 126541,-307149.6 127692,-124240.3 317503,-124240.3 186361,0 315203,123089.9 z"
           style="font-style:normal;font-variant:normal;font-weight:normal;font-stretch:normal;font-family:PetitaBold;-inkscape-font-specification:PetitaBold;letter-spacing:97109.6953125px;stroke-width:28759.328125"
           id="path55" />
      </g>
    </g>
  </g>
</svg>
